<?xml version="1.0" encoding="UTF-8" standalone="no"?>
<svg width="46px" height="47px" viewBox="0 0 46 47" version="1.1" xmlns="http://www.w3.org/2000/svg" xmlns:xlink="http://www.w3.org/1999/xlink" xmlns:sketch="http://www.bohemiancoding.com/sketch/ns">
    <!-- Generator: Sketch 3.4.4 (17249) - http://www.bohemiancoding.com/sketch -->
    <title>arrow</title>
    <desc>Created with Sketch.</desc>
    <defs></defs>
    <g id="Page-1" stroke="none" stroke-width="1" fill="none" fill-rule="evenodd" sketch:type="MSPage">
        <g id="arrow" sketch:type="MSLayerGroup">
            <g id="Page-1" sketch:type="MSShapeGroup">
                <g id="48">
                    <g id="noun_118620_cc">
                        <g id="Group">
                            <path d="M24.0222222,9.29782609 C23.46,8.73586957 22.4888889,8.73586957 21.9266667,9.29782609 L10.4266667,20.6902174 C9.86444444,21.2521739 9.86444444,22.2228261 10.4266667,22.7847826 C10.9888889,23.3467391 11.96,23.3467391 12.5222222,22.7847826 L23,12.4141304 L33.4777778,22.7847826 C33.7844444,23.0913043 34.1422222,23.1934783 34.5,23.1934783 C34.8577778,23.1934783 35.2666667,23.0402174 35.5733333,22.7336957 C36.1355556,22.1717391 36.1355556,21.201087 35.5733333,20.6391304 L24.0222222,9.29782609 L24.0222222,9.29782609 L24.0222222,9.29782609 Z" id="Shape" fill="#F088C7"></path>
                            <path d="M24.0222222,20.6902174 C23.46,20.1282609 22.4888889,20.1282609 21.9266667,20.6902174 L10.4266667,32.1336957 C9.86444444,32.6956522 9.86444444,33.6663043 10.4266667,34.2282609 C10.7333333,34.5347826 11.0911111,34.6880435 11.5,34.6880435 C11.8577778,34.6880435 12.2666667,34.5347826 12.5222222,34.2793478 L23,23.8576087 L33.4777778,34.2282609 C34.04,34.7902174 35.0111111,34.7902174 35.5733333,34.2282609 C36.1355556,33.6663043 36.1355556,32.6956522 35.5733333,32.1336957 L24.0222222,20.6902174 L24.0222222,20.6902174 L24.0222222,20.6902174 Z" id="Shape" fill="#F088C7"></path>
                            <path d="M23.1533333,0.510869565 C10.4777778,0.408695652 0.102222222,10.6771739 0,23.5 C0,36.1184783 10.2733333,46.3869565 22.8466667,46.4891304 C28.98,46.5402174 34.8066667,44.1902174 39.1511111,39.8478261 C43.5466667,35.5565217 45.9488889,29.7836957 46,23.6532609 L46,23.5 C46,10.8815217 35.7266667,0.613043478 23.1533333,0.510869565 L23.1533333,0.510869565 L23.1533333,0.510869565 Z M42.8822222,23.6021739 C42.8311111,28.9152174 40.7355556,33.8706522 36.9533333,37.651087 C33.2222222,41.3804348 28.2133333,43.423913 22.8977778,43.3728261 C12.0111111,43.3217391 3.11777778,34.3815217 3.11777778,23.3467391 C3.16888889,12.3630435 12.1644444,3.525 23.1533333,3.57608696 C34.04,3.67826087 42.8822222,12.6184783 42.8822222,23.5 L42.8822222,23.6021739 L42.8822222,23.6021739 L42.8822222,23.6021739 Z" id="Shape" fill-opacity="0.829625226" fill="#EE70BC"></path>
                        </g>
                    </g>
                </g>
            </g>
        </g>
    </g>
</svg>