<?xml version="1.0" encoding="UTF-8" standalone="no"?>
<svg width="48px" height="48px" viewBox="0 0 48 48" version="1.1" xmlns="http://www.w3.org/2000/svg" xmlns:xlink="http://www.w3.org/1999/xlink" xmlns:sketch="http://www.bohemiancoding.com/sketch/ns">
    <!-- Generator: Sketch 3.4.4 (17249) - http://www.bohemiancoding.com/sketch -->
    <title>48</title>
    <desc>Created with Sketch.</desc>
    <defs></defs>
    <g id="Page-1" stroke="none" stroke-width="1" fill="none" fill-rule="evenodd" sketch:type="MSPage">
        <g id="48" sketch:type="MSArtboardGroup" fill="#000000">
            <g id="5151e0c8492e5103c096af88a5006e1e" sketch:type="MSLayerGroup" transform="translate(-2.000000, 4.000000)">
                <path d="M0.707078125,21.0916751 C3.001375,20.5189848 6.12086719,19.7389848 11.58625,19.5939086 C11.4352266,19.2919797 11.2988281,18.9793909 11.1780703,18.6570558 C9.05135156,18.6385787 2.50158594,18.9405076 0.25796875,19.4946193 C0.245273437,19.4985787 0.231664062,19.4994924 0.218054687,19.4994924 C0.143,19.4994924 0.0738359375,19.4479188 0.0553515625,19.3719797 C0.033921875,19.2833503 0.0884609375,19.1918782 0.178039062,19.1694416 C2.40124219,18.620203 8.79307812,18.3153299 11.0572109,18.3212183 C10.5476719,16.8234518 10.3226094,15.1075127 10.3226094,13.1919797 C10.3226094,9.7893401 11.3826172,8.5057868 12.8068281,6.69248731 C11.7176719,2.81461929 13.1975391,0.163857868 13.1975391,0.163857868 C13.1975391,0.163857868 15.4860469,-0.31035533 19.8125078,2.78639594 C22.1574844,1.78233503 28.4094687,1.6986802 31.3672734,2.56345178 C33.1832109,1.36365482 36.5033906,-0.33857868 37.8439141,0.137563452 C38.2062891,0.721827411 38.9877109,2.42314721 38.3173984,6.16274112 C38.7733125,6.98274112 41.136875,8.72984772 41.1465234,13.6681218 C41.1075234,15.4892386 40.9185156,17.0269036 40.5678203,18.3279188 C46.2086016,18.280203 49.5268516,18.7456853 51.8123125,19.1663959 C51.9019922,19.1848731 51.9624219,19.2715736 51.9467812,19.362132 C51.9312422,19.4420305 51.8610625,19.4994924 51.7831641,19.4994924 C51.7714844,19.4994924 51.7617344,19.4985787 51.7500547,19.4975635 C49.4683516,19.0749239 46.1444141,18.6113706 40.4704219,18.6629442 C40.3709922,18.9930964 40.2599844,19.3067005 40.139125,19.6056853 C42.0701328,19.6699492 47.3737266,19.8764467 51.6992734,21.1988832 C51.7889531,21.2261929 51.8376016,21.3195939 51.8103828,21.4092386 C51.7889531,21.4803046 51.7227344,21.5270051 51.650625,21.5270051 C51.6350859,21.5270051 51.6175156,21.5250761 51.6019766,21.5192893 C47.216,20.1792893 41.7973359,19.9952284 39.9951094,19.935736 C38.4265781,23.3803046 35.2096875,24.6656853 30.0092812,25.2003046 C31.6947109,26.2608122 32.1779453,27.5909645 32.1779453,31.1904569 C32.1779453,34.7897462 32.1292969,35.2727919 32.1409766,36.1004061 C32.1585469,37.4590863 34.1497812,38.1094416 34.0758437,38.5467005 C34.0018047,38.9831472 32.4099141,38.9128934 31.6656641,38.6529949 C29.5574297,37.9187817 29.7677656,36.1656853 29.7677656,36.1656853 L29.6976875,31.3530964 C29.6976875,31.3530964 29.8419062,28.7626396 28.8851875,28.7626396 L28.8851875,36.64 C28.8851875,38.3519797 30.0835234,38.8720812 30.0835234,39.5050761 C30.0835234,40.5928934 27.8935312,39.4019289 27.2192578,38.7230457 C26.1900234,37.6907614 26.3070234,35.5017259 26.3323125,33.7702538 C26.3556719,32.0980711 26.3167734,28.4413198 26.3167734,28.4413198 L25.6183281,28.4560406 C25.6183281,28.4560406 25.9047344,36.444467 25.2500625,37.900203 C24.4035391,39.7690355 21.8500547,40.4118782 21.8500547,39.5606091 C21.8500547,38.9879188 22.4793359,39.1701523 22.8271875,37.8867005 C23.1242578,36.7949239 23.023,28.6506599 23.023,28.6506599 C23.023,28.6506599 22.2047109,29.1347208 22.2047109,30.6596954 C22.2047109,31.357868 22.1852109,35.3457868 22.1852109,36.5329949 C22.1852109,38.0258883 20.0642812,38.8759391 19.0452031,38.8759391 C18.5288594,38.8759391 17.8868828,38.8507614 17.8868828,38.5771574 C17.8868828,37.8867005 19.826625,37.4814213 19.826625,36.0450761 C19.826625,34.7995939 19.7993047,31.595736 19.7993047,31.595736 C19.7993047,31.595736 18.8211562,31.7630457 17.4260937,31.7630457 C13.9091875,31.7630457 12.7965703,29.5193909 12.2675312,28.2640609 C11.5787344,26.6290355 10.6853906,25.8607107 9.73649219,25.2471066 C9.15392969,24.8702538 9.01946094,24.4251777 9.69363281,24.2985787 C12.8072344,23.7123858 13.6031797,27.8278173 15.6821641,28.4831472 C17.1658906,28.9516751 19.0734375,28.7490355 20.0223359,28.135533 C20.1480703,26.8781726 21.0541094,25.7914721 21.809125,25.2188832 C16.5210703,24.7114721 13.3859375,22.8758376 11.7609375,19.9249746 C6.22923437,20.0574619 3.09034375,20.842335 0.789242187,21.4168528 C0.621664062,21.4587817 0.458046875,21.4995939 0.30021875,21.5395939 C0.286609375,21.5424365 0.272898437,21.5434518 0.259289062,21.5434518 C0.184234375,21.5434518 0.116085937,21.4927919 0.0965859375,21.4168528 C0.074140625,21.3273096 0.129695312,21.235736 0.219375,21.2132995 C0.3778125,21.1743147 0.540515625,21.1345178 0.707078125,21.0916751 L0.707078125,21.0916751 Z" id="XMLID_1_" sketch:type="MSShapeGroup"></path>
            </g>
        </g>
    </g>
</svg>