<?xml version="1.0" encoding="UTF-8" standalone="no"?>
<svg width="48px" height="48px" viewBox="0 0 48 48" version="1.1" xmlns="http://www.w3.org/2000/svg" xmlns:xlink="http://www.w3.org/1999/xlink" xmlns:sketch="http://www.bohemiancoding.com/sketch/ns">
    <!-- Generator: Sketch 3.4.4 (17249) - http://www.bohemiancoding.com/sketch -->
    <title>48</title>
    <desc>Created with Sketch.</desc>
    <defs></defs>
    <g id="Page-1" stroke="none" stroke-width="1" fill="none" fill-rule="evenodd" sketch:type="MSPage">
        <g id="48" sketch:type="MSArtboardGroup" fill="#000000">
            <g id="noun_14626_cc" sketch:type="MSLayerGroup" transform="translate(4.000000, 11.000000)">
                <path d="M39.31254,1.77635684e-15 L0.806646802,1.77635684e-15 L0,1.77635684e-15 L0,25.8179858 L40,25.8179858 L40,1.77635684e-15 L39.31254,1.77635684e-15 L39.31254,1.77635684e-15 Z M13.7967925,12.5959749 L20.0921359,17.858908 L26.0303255,12.8774674 L37.5174153,24.3641504 L2.02821027,24.3641504 L13.7967925,12.5959749 L13.7967925,12.5959749 Z M1.45505578,22.8810267 L1.45505578,2.28000773 L12.6761108,11.6591582 L1.45505578,22.8810267 L1.45505578,22.8810267 Z M27.1485666,11.9390235 L38.5457578,2.3792623 L38.5457578,23.3362147 L27.1485666,11.9390235 L27.1485666,11.9390235 Z M37.3864318,1.454649 L20.0896952,15.9600541 L2.73560249,1.454649 L37.3864318,1.454649 L37.3864318,1.454649 Z" id="Shape" sketch:type="MSShapeGroup"></path>
            </g>
        </g>
    </g>
</svg>